<mxfile host="65bd71144e" scale="1" border="0">
    <diagram id="yJc_cX763BO0y-31G8fK" name="Visualização">
        <mxGraphModel dx="1137" dy="440" grid="1" gridSize="10" guides="1" tooltips="1" connect="1" arrows="1" fold="1" page="1" pageScale="1" pageWidth="900" pageHeight="1600" background="none" math="0" shadow="0">
            <root>
                <mxCell id="0"/>
                <mxCell id="1" style="" parent="0"/>
                <mxCell id="tCIB02ReK06vNNhFIjAe-1" value="1" parent="0"/>
                <mxCell id="tCIB02ReK06vNNhFIjAe-5" value="&lt;font style=&quot;font-size: 20px;&quot;&gt;User Input&lt;/font&gt;" style="html=1;verticalLabelPosition=bottom;align=center;labelBackgroundColor=#ffffff;verticalAlign=top;strokeWidth=2;strokeColor=#0080F0;shadow=0;dashed=0;shape=mxgraph.ios7.icons.user;" parent="tCIB02ReK06vNNhFIjAe-1" vertex="1">
                    <mxGeometry x="10" y="10" width="100" height="100" as="geometry"/>
                </mxCell>
                <mxCell id="tCIB02ReK06vNNhFIjAe-14" value="" style="edgeStyle=none;html=1;exitX=0.887;exitY=0.411;exitDx=0;exitDy=0;exitPerimeter=0;" parent="tCIB02ReK06vNNhFIjAe-1" source="tCIB02ReK06vNNhFIjAe-15" target="tCIB02ReK06vNNhFIjAe-13" edge="1">
                    <mxGeometry relative="1" as="geometry">
                        <mxPoint x="203" y="80.04044117647061" as="sourcePoint"/>
                    </mxGeometry>
                </mxCell>
                <mxCell id="tCIB02ReK06vNNhFIjAe-12" style="edgeStyle=none;html=1;entryX=-0.087;entryY=0.458;entryDx=0;entryDy=0;entryPerimeter=0;" parent="tCIB02ReK06vNNhFIjAe-1" source="tCIB02ReK06vNNhFIjAe-5" target="tCIB02ReK06vNNhFIjAe-15" edge="1">
                    <mxGeometry relative="1" as="geometry">
                        <mxPoint x="171.64999999999986" y="82.09000000000015" as="targetPoint"/>
                    </mxGeometry>
                </mxCell>
                <mxCell id="tCIB02ReK06vNNhFIjAe-17" style="edgeStyle=none;html=1;entryX=0.75;entryY=0.55;entryDx=0;entryDy=0;entryPerimeter=0;" parent="tCIB02ReK06vNNhFIjAe-1" source="tCIB02ReK06vNNhFIjAe-13" target="tCIB02ReK06vNNhFIjAe-20" edge="1">
                    <mxGeometry relative="1" as="geometry">
                        <mxPoint x="490" y="80" as="targetPoint"/>
                    </mxGeometry>
                </mxCell>
                <mxCell id="tCIB02ReK06vNNhFIjAe-13" value="&lt;font style=&quot;font-size: 19px;&quot;&gt;Telegram&lt;/font&gt;" style="html=1;verticalLabelPosition=bottom;align=center;labelBackgroundColor=#ffffff;verticalAlign=top;strokeWidth=2;strokeColor=#0080F0;shadow=0;dashed=0;shape=mxgraph.ios7.icons.smartphone;" parent="tCIB02ReK06vNNhFIjAe-1" vertex="1">
                    <mxGeometry x="304.3" y="10" width="65.7" height="109.5" as="geometry"/>
                </mxCell>
                <mxCell id="tCIB02ReK06vNNhFIjAe-15" value="&lt;font style=&quot;font-size: 14px;&quot;&gt;Image, PDF, Text&lt;/font&gt;" style="html=1;verticalLabelPosition=bottom;align=center;labelBackgroundColor=#ffffff;verticalAlign=top;strokeWidth=2;strokeColor=#0080F0;shadow=0;dashed=0;shape=mxgraph.ios7.icons.document;" parent="tCIB02ReK06vNNhFIjAe-1" vertex="1">
                    <mxGeometry x="170" y="39.63" width="35" height="50.25" as="geometry"/>
                </mxCell>
                <mxCell id="tCIB02ReK06vNNhFIjAe-18" value="LLM de Transcrição&amp;nbsp;&lt;div&gt;de PDF&lt;/div&gt;" style="verticalLabelPosition=bottom;aspect=fixed;html=1;shape=mxgraph.salesforce.bots;" parent="tCIB02ReK06vNNhFIjAe-1" vertex="1">
                    <mxGeometry x="588.5699999999999" y="210" width="60" height="57" as="geometry"/>
                </mxCell>
                <mxCell id="tCIB02ReK06vNNhFIjAe-19" value="&lt;font style=&quot;font-size: 16px;&quot;&gt;Banco de dados&lt;/font&gt;" style="html=1;verticalLabelPosition=bottom;align=center;labelBackgroundColor=#ffffff;verticalAlign=top;strokeWidth=2;strokeColor=#0080F0;shadow=0;dashed=0;shape=mxgraph.ios7.icons.data;" parent="tCIB02ReK06vNNhFIjAe-1" vertex="1">
                    <mxGeometry x="140" y="810" width="80.04" height="97.05" as="geometry"/>
                </mxCell>
                <mxCell id="tCIB02ReK06vNNhFIjAe-22" value="Manual input" style="edgeStyle=none;html=1;exitX=0.306;exitY=0.122;exitDx=0;exitDy=0;exitPerimeter=0;entryX=-0.026;entryY=0.454;entryDx=0;entryDy=0;entryPerimeter=0;" parent="tCIB02ReK06vNNhFIjAe-1" source="tCIB02ReK06vNNhFIjAe-20" target="tCIB02ReK06vNNhFIjAe-34" edge="1">
                    <mxGeometry relative="1" as="geometry">
                        <mxPoint x="519.3299999999997" y="65.47137141852158" as="targetPoint"/>
                    </mxGeometry>
                </mxCell>
                <mxCell id="tCIB02ReK06vNNhFIjAe-25" value="PDF input" style="edgeStyle=none;html=1;entryX=0.024;entryY=0.642;entryDx=0;entryDy=0;entryPerimeter=0;" parent="tCIB02ReK06vNNhFIjAe-1" source="tCIB02ReK06vNNhFIjAe-20" target="tCIB02ReK06vNNhFIjAe-18" edge="1">
                    <mxGeometry relative="1" as="geometry">
                        <mxPoint x="540" y="220" as="targetPoint"/>
                    </mxGeometry>
                </mxCell>
                <mxCell id="tCIB02ReK06vNNhFIjAe-27" value="Image input" style="edgeStyle=none;html=1;exitX=0.306;exitY=0.912;exitDx=0;exitDy=0;exitPerimeter=0;entryX=-0.11;entryY=0.401;entryDx=0;entryDy=0;entryPerimeter=0;" parent="tCIB02ReK06vNNhFIjAe-1" source="tCIB02ReK06vNNhFIjAe-20" target="tCIB02ReK06vNNhFIjAe-28" edge="1">
                    <mxGeometry relative="1" as="geometry">
                        <mxPoint x="530" y="280" as="targetPoint"/>
                    </mxGeometry>
                </mxCell>
                <mxCell id="tCIB02ReK06vNNhFIjAe-20" value="Processamento do Input" style="verticalLabelPosition=bottom;aspect=fixed;html=1;shape=mxgraph.salesforce.stream;flipV=0;flipH=1;" parent="tCIB02ReK06vNNhFIjAe-1" vertex="1">
                    <mxGeometry x="320" y="230" width="60" height="60" as="geometry"/>
                </mxCell>
                <mxCell id="tCIB02ReK06vNNhFIjAe-28" value="Transformar IMG p/ Enconde64" style="html=1;verticalLabelPosition=bottom;align=center;labelBackgroundColor=#ffffff;verticalAlign=top;strokeWidth=2;strokeColor=#0080F0;shadow=0;dashed=0;shape=mxgraph.ios7.icons.shuffle;pointerEvents=1" parent="tCIB02ReK06vNNhFIjAe-1" vertex="1">
                    <mxGeometry x="591.43" y="380" width="57.14" height="40" as="geometry"/>
                </mxCell>
                <mxCell id="tCIB02ReK06vNNhFIjAe-43" style="edgeStyle=none;html=1;" parent="tCIB02ReK06vNNhFIjAe-1" source="tCIB02ReK06vNNhFIjAe-31" target="tCIB02ReK06vNNhFIjAe-44" edge="1">
                    <mxGeometry relative="1" as="geometry">
                        <mxPoint x="727.5999999999999" y="440" as="targetPoint"/>
                    </mxGeometry>
                </mxCell>
                <mxCell id="tCIB02ReK06vNNhFIjAe-31" value="Prompt templat&lt;div&gt;+&lt;/div&gt;&lt;div&gt;Arquivo&lt;/div&gt;" style="verticalLabelPosition=bottom;aspect=fixed;html=1;shape=mxgraph.salesforce.builders;" parent="tCIB02ReK06vNNhFIjAe-1" vertex="1">
                    <mxGeometry x="802.4" y="240" width="55.2" height="60" as="geometry"/>
                </mxCell>
                <mxCell id="tCIB02ReK06vNNhFIjAe-32" style="edgeStyle=none;html=1;entryX=0.058;entryY=0.503;entryDx=0;entryDy=0;entryPerimeter=0;" parent="tCIB02ReK06vNNhFIjAe-1" source="tCIB02ReK06vNNhFIjAe-28" target="tCIB02ReK06vNNhFIjAe-31" edge="1">
                    <mxGeometry relative="1" as="geometry"/>
                </mxCell>
                <mxCell id="tCIB02ReK06vNNhFIjAe-34" value="Cadeia de Perguntas" style="verticalLabelPosition=bottom;aspect=fixed;html=1;shape=mxgraph.salesforce.channels;" parent="tCIB02ReK06vNNhFIjAe-1" vertex="1">
                    <mxGeometry x="578.57" y="22.5" width="60" height="60" as="geometry"/>
                </mxCell>
                <mxCell id="tCIB02ReK06vNNhFIjAe-38" style="edgeStyle=none;html=1;entryX=-0.049;entryY=0.503;entryDx=0;entryDy=0;entryPerimeter=0;" parent="tCIB02ReK06vNNhFIjAe-1" source="tCIB02ReK06vNNhFIjAe-18" target="tCIB02ReK06vNNhFIjAe-31" edge="1">
                    <mxGeometry relative="1" as="geometry"/>
                </mxCell>
                <mxCell id="tCIB02ReK06vNNhFIjAe-41" value="API" style="html=1;verticalLabelPosition=bottom;align=center;labelBackgroundColor=#ffffff;verticalAlign=top;strokeWidth=2;strokeColor=#0080F0;shadow=0;dashed=0;shape=mxgraph.ios7.icons.pointer;" parent="tCIB02ReK06vNNhFIjAe-1" vertex="1">
                    <mxGeometry x="800" y="15" width="75" height="75" as="geometry"/>
                </mxCell>
                <mxCell id="tCIB02ReK06vNNhFIjAe-42" style="edgeStyle=none;html=1;entryX=-0.028;entryY=0.51;entryDx=0;entryDy=0;entryPerimeter=0;" parent="tCIB02ReK06vNNhFIjAe-1" source="tCIB02ReK06vNNhFIjAe-34" target="tCIB02ReK06vNNhFIjAe-41" edge="1">
                    <mxGeometry relative="1" as="geometry"/>
                </mxCell>
                <mxCell id="tCIB02ReK06vNNhFIjAe-46" style="edgeStyle=none;html=1;" parent="tCIB02ReK06vNNhFIjAe-1" source="tCIB02ReK06vNNhFIjAe-44" target="tCIB02ReK06vNNhFIjAe-45" edge="1">
                    <mxGeometry relative="1" as="geometry"/>
                </mxCell>
                <mxCell id="tCIB02ReK06vNNhFIjAe-44" value="Processa os dados" style="verticalLabelPosition=bottom;aspect=fixed;html=1;shape=mxgraph.salesforce.bots;" parent="tCIB02ReK06vNNhFIjAe-1" vertex="1">
                    <mxGeometry x="797.5999999999999" y="360" width="60" height="57" as="geometry"/>
                </mxCell>
                <mxCell id="tCIB02ReK06vNNhFIjAe-48" style="edgeStyle=none;html=1;entryX=0.92;entryY=0.494;entryDx=0;entryDy=0;entryPerimeter=0;" parent="tCIB02ReK06vNNhFIjAe-1" source="tCIB02ReK06vNNhFIjAe-45" target="tCIB02ReK06vNNhFIjAe-49" edge="1">
                    <mxGeometry relative="1" as="geometry">
                        <mxPoint x="650" y="468.5" as="targetPoint"/>
                    </mxGeometry>
                </mxCell>
                <mxCell id="tCIB02ReK06vNNhFIjAe-45" value="Output Parser" style="verticalLabelPosition=bottom;aspect=fixed;html=1;shape=mxgraph.salesforce.bots;" parent="tCIB02ReK06vNNhFIjAe-1" vertex="1">
                    <mxGeometry x="797.6" y="592.5" width="60" height="57" as="geometry"/>
                </mxCell>
                <mxCell id="tCIB02ReK06vNNhFIjAe-51" value="Se completo" style="edgeStyle=none;html=1;exitX=0.273;exitY=0.178;exitDx=0;exitDy=0;exitPerimeter=0;" parent="tCIB02ReK06vNNhFIjAe-1" source="tCIB02ReK06vNNhFIjAe-49" target="tCIB02ReK06vNNhFIjAe-54" edge="1">
                    <mxGeometry relative="1" as="geometry">
                        <mxPoint x="459.9495597058253" y="414.7019576851512" as="targetPoint"/>
                    </mxGeometry>
                </mxCell>
                <mxCell id="tCIB02ReK06vNNhFIjAe-57" value="Se não completo" style="edgeStyle=none;html=1;entryX=0.955;entryY=0.532;entryDx=0;entryDy=0;entryPerimeter=0;" parent="tCIB02ReK06vNNhFIjAe-1" source="tCIB02ReK06vNNhFIjAe-49" target="tCIB02ReK06vNNhFIjAe-58" edge="1">
                    <mxGeometry relative="1" as="geometry">
                        <mxPoint x="430" y="538.0615620654937" as="targetPoint"/>
                    </mxGeometry>
                </mxCell>
                <mxCell id="tCIB02ReK06vNNhFIjAe-49" value="" style="verticalLabelPosition=bottom;aspect=fixed;html=1;shape=mxgraph.salesforce.stream;flipV=0;flipH=0;" parent="tCIB02ReK06vNNhFIjAe-1" vertex="1">
                    <mxGeometry x="588.5699999999999" y="592.5" width="60" height="60" as="geometry"/>
                </mxCell>
                <mxCell id="tCIB02ReK06vNNhFIjAe-52" value="API" style="html=1;verticalLabelPosition=bottom;align=center;labelBackgroundColor=#ffffff;verticalAlign=top;strokeWidth=2;strokeColor=#0080F0;shadow=0;dashed=0;shape=mxgraph.ios7.icons.pointer;" parent="tCIB02ReK06vNNhFIjAe-1" vertex="1">
                    <mxGeometry x="140" y="570" width="75" height="75" as="geometry"/>
                </mxCell>
                <mxCell id="tCIB02ReK06vNNhFIjAe-54" value="Confirmação" style="verticalLabelPosition=bottom;aspect=fixed;html=1;shape=mxgraph.salesforce.inbox;" parent="tCIB02ReK06vNNhFIjAe-1" vertex="1">
                    <mxGeometry x="380" y="450" width="50.67" height="38" as="geometry"/>
                </mxCell>
                <mxCell id="tCIB02ReK06vNNhFIjAe-55" style="edgeStyle=none;html=1;entryX=0.74;entryY=0.442;entryDx=0;entryDy=0;entryPerimeter=0;" parent="tCIB02ReK06vNNhFIjAe-1" source="tCIB02ReK06vNNhFIjAe-54" target="tCIB02ReK06vNNhFIjAe-52" edge="1">
                    <mxGeometry relative="1" as="geometry">
                        <mxPoint x="250" y="488" as="targetPoint"/>
                    </mxGeometry>
                </mxCell>
                <mxCell id="tCIB02ReK06vNNhFIjAe-58" value="Cadeia de Perguntas" style="verticalLabelPosition=bottom;aspect=fixed;html=1;shape=mxgraph.salesforce.channels;" parent="tCIB02ReK06vNNhFIjAe-1" vertex="1">
                    <mxGeometry x="370.00000000000006" y="720" width="60" height="60" as="geometry"/>
                </mxCell>
                <mxCell id="tCIB02ReK06vNNhFIjAe-60" style="edgeStyle=none;html=1;entryX=0.709;entryY=0.457;entryDx=0;entryDy=0;entryPerimeter=0;" parent="tCIB02ReK06vNNhFIjAe-1" source="tCIB02ReK06vNNhFIjAe-58" target="tCIB02ReK06vNNhFIjAe-52" edge="1">
                    <mxGeometry relative="1" as="geometry"/>
                </mxCell>
                <mxCell id="tCIB02ReK06vNNhFIjAe-61" value="Alimenta" style="edgeStyle=none;html=1;entryX=0.448;entryY=0.032;entryDx=0;entryDy=0;entryPerimeter=0;" parent="tCIB02ReK06vNNhFIjAe-1" source="tCIB02ReK06vNNhFIjAe-52" target="tCIB02ReK06vNNhFIjAe-19" edge="1">
                    <mxGeometry relative="1" as="geometry"/>
                </mxCell>
                <mxCell id="tCIB02ReK06vNNhFIjAe-64" value="Representação&amp;nbsp;&lt;div&gt;Visual&lt;/div&gt;" style="verticalLabelPosition=bottom;aspect=fixed;html=1;shape=mxgraph.salesforce.sales;" parent="tCIB02ReK06vNNhFIjAe-1" vertex="1">
                    <mxGeometry x="140" y="1030" width="80" height="80" as="geometry"/>
                </mxCell>
                <mxCell id="tCIB02ReK06vNNhFIjAe-65" value="&lt;font style=&quot;font-size: 14px;&quot;&gt;Consome&lt;/font&gt;" style="edgeStyle=none;html=1;entryX=0.531;entryY=0.983;entryDx=0;entryDy=0;entryPerimeter=0;" parent="tCIB02ReK06vNNhFIjAe-1" source="tCIB02ReK06vNNhFIjAe-64" target="tCIB02ReK06vNNhFIjAe-19" edge="1">
                    <mxGeometry relative="1" as="geometry"/>
                </mxCell>
            </root>
        </mxGraphModel>
    </diagram>
    <diagram id="j3a80YPN11SkSNIDcJA1" name="Modelagem">
        <mxGraphModel dx="1222" dy="428" grid="1" gridSize="10" guides="1" tooltips="1" connect="1" arrows="1" fold="1" page="1" pageScale="1" pageWidth="850" pageHeight="1100" math="0" shadow="0">
            <root>
                <mxCell id="0"/>
                <mxCell id="1" parent="0"/>
                <mxCell id="-ezi1YoIWXzpiLEhyv2d-1" value="Transation" style="shape=table;startSize=30;container=1;collapsible=1;childLayout=tableLayout;fixedRows=1;rowLines=0;fontStyle=1;align=center;resizeLast=1;html=1;" parent="1" vertex="1">
                    <mxGeometry x="60" y="60" width="180" height="330" as="geometry"/>
                </mxCell>
                <mxCell id="-ezi1YoIWXzpiLEhyv2d-2" value="" style="shape=tableRow;horizontal=0;startSize=0;swimlaneHead=0;swimlaneBody=0;fillColor=none;collapsible=0;dropTarget=0;points=[[0,0.5],[1,0.5]];portConstraint=eastwest;top=0;left=0;right=0;bottom=1;" parent="-ezi1YoIWXzpiLEhyv2d-1" vertex="1">
                    <mxGeometry y="30" width="180" height="30" as="geometry"/>
                </mxCell>
                <mxCell id="-ezi1YoIWXzpiLEhyv2d-3" value="PK" style="shape=partialRectangle;connectable=0;fillColor=none;top=0;left=0;bottom=0;right=0;fontStyle=1;overflow=hidden;whiteSpace=wrap;html=1;" parent="-ezi1YoIWXzpiLEhyv2d-2" vertex="1">
                    <mxGeometry width="50" height="30" as="geometry">
                        <mxRectangle width="50" height="30" as="alternateBounds"/>
                    </mxGeometry>
                </mxCell>
                <mxCell id="-ezi1YoIWXzpiLEhyv2d-4" value="id" style="shape=partialRectangle;connectable=0;fillColor=none;top=0;left=0;bottom=0;right=0;align=left;spacingLeft=6;fontStyle=5;overflow=hidden;whiteSpace=wrap;html=1;" parent="-ezi1YoIWXzpiLEhyv2d-2" vertex="1">
                    <mxGeometry x="50" width="130" height="30" as="geometry">
                        <mxRectangle width="130" height="30" as="alternateBounds"/>
                    </mxGeometry>
                </mxCell>
                <mxCell id="-ezi1YoIWXzpiLEhyv2d-8" value="" style="shape=tableRow;horizontal=0;startSize=0;swimlaneHead=0;swimlaneBody=0;fillColor=none;collapsible=0;dropTarget=0;points=[[0,0.5],[1,0.5]];portConstraint=eastwest;top=0;left=0;right=0;bottom=0;" parent="-ezi1YoIWXzpiLEhyv2d-1" vertex="1">
                    <mxGeometry y="60" width="180" height="30" as="geometry"/>
                </mxCell>
                <mxCell id="-ezi1YoIWXzpiLEhyv2d-9" value="str" style="shape=partialRectangle;connectable=0;fillColor=none;top=0;left=0;bottom=0;right=0;editable=1;overflow=hidden;whiteSpace=wrap;html=1;" parent="-ezi1YoIWXzpiLEhyv2d-8" vertex="1">
                    <mxGeometry width="50" height="30" as="geometry">
                        <mxRectangle width="50" height="30" as="alternateBounds"/>
                    </mxGeometry>
                </mxCell>
                <mxCell id="-ezi1YoIWXzpiLEhyv2d-10" value="description" style="shape=partialRectangle;connectable=0;fillColor=none;top=0;left=0;bottom=0;right=0;align=left;spacingLeft=6;overflow=hidden;whiteSpace=wrap;html=1;" parent="-ezi1YoIWXzpiLEhyv2d-8" vertex="1">
                    <mxGeometry x="50" width="130" height="30" as="geometry">
                        <mxRectangle width="130" height="30" as="alternateBounds"/>
                    </mxGeometry>
                </mxCell>
                <mxCell id="-ezi1YoIWXzpiLEhyv2d-11" value="" style="shape=tableRow;horizontal=0;startSize=0;swimlaneHead=0;swimlaneBody=0;fillColor=none;collapsible=0;dropTarget=0;points=[[0,0.5],[1,0.5]];portConstraint=eastwest;top=0;left=0;right=0;bottom=0;" parent="-ezi1YoIWXzpiLEhyv2d-1" vertex="1">
                    <mxGeometry y="90" width="180" height="30" as="geometry"/>
                </mxCell>
                <mxCell id="-ezi1YoIWXzpiLEhyv2d-12" value="float" style="shape=partialRectangle;connectable=0;fillColor=none;top=0;left=0;bottom=0;right=0;editable=1;overflow=hidden;whiteSpace=wrap;html=1;" parent="-ezi1YoIWXzpiLEhyv2d-11" vertex="1">
                    <mxGeometry width="50" height="30" as="geometry">
                        <mxRectangle width="50" height="30" as="alternateBounds"/>
                    </mxGeometry>
                </mxCell>
                <mxCell id="-ezi1YoIWXzpiLEhyv2d-13" value="value" style="shape=partialRectangle;connectable=0;fillColor=none;top=0;left=0;bottom=0;right=0;align=left;spacingLeft=6;overflow=hidden;whiteSpace=wrap;html=1;" parent="-ezi1YoIWXzpiLEhyv2d-11" vertex="1">
                    <mxGeometry x="50" width="130" height="30" as="geometry">
                        <mxRectangle width="130" height="30" as="alternateBounds"/>
                    </mxGeometry>
                </mxCell>
                <mxCell id="-ezi1YoIWXzpiLEhyv2d-14" value="" style="shape=tableRow;horizontal=0;startSize=0;swimlaneHead=0;swimlaneBody=0;fillColor=none;collapsible=0;dropTarget=0;points=[[0,0.5],[1,0.5]];portConstraint=eastwest;top=0;left=0;right=0;bottom=0;" parent="-ezi1YoIWXzpiLEhyv2d-1" vertex="1">
                    <mxGeometry y="120" width="180" height="30" as="geometry"/>
                </mxCell>
                <mxCell id="-ezi1YoIWXzpiLEhyv2d-15" value="&lt;b&gt;chart&lt;/b&gt;" style="shape=partialRectangle;connectable=0;fillColor=none;top=0;left=0;bottom=0;right=0;editable=1;overflow=hidden;whiteSpace=wrap;html=1;" parent="-ezi1YoIWXzpiLEhyv2d-14" vertex="1">
                    <mxGeometry width="50" height="30" as="geometry">
                        <mxRectangle width="50" height="30" as="alternateBounds"/>
                    </mxGeometry>
                </mxCell>
                <mxCell id="-ezi1YoIWXzpiLEhyv2d-16" value="category" style="shape=partialRectangle;connectable=0;fillColor=none;top=0;left=0;bottom=0;right=0;align=left;spacingLeft=6;overflow=hidden;whiteSpace=wrap;html=1;" parent="-ezi1YoIWXzpiLEhyv2d-14" vertex="1">
                    <mxGeometry x="50" width="130" height="30" as="geometry">
                        <mxRectangle width="130" height="30" as="alternateBounds"/>
                    </mxGeometry>
                </mxCell>
                <mxCell id="-ezi1YoIWXzpiLEhyv2d-17" value="" style="shape=tableRow;horizontal=0;startSize=0;swimlaneHead=0;swimlaneBody=0;fillColor=none;collapsible=0;dropTarget=0;points=[[0,0.5],[1,0.5]];portConstraint=eastwest;top=0;left=0;right=0;bottom=0;" parent="-ezi1YoIWXzpiLEhyv2d-1" vertex="1">
                    <mxGeometry y="150" width="180" height="30" as="geometry"/>
                </mxCell>
                <mxCell id="-ezi1YoIWXzpiLEhyv2d-18" value="date" style="shape=partialRectangle;connectable=0;fillColor=none;top=0;left=0;bottom=0;right=0;editable=1;overflow=hidden;whiteSpace=wrap;html=1;" parent="-ezi1YoIWXzpiLEhyv2d-17" vertex="1">
                    <mxGeometry width="50" height="30" as="geometry">
                        <mxRectangle width="50" height="30" as="alternateBounds"/>
                    </mxGeometry>
                </mxCell>
                <mxCell id="-ezi1YoIWXzpiLEhyv2d-19" value="date" style="shape=partialRectangle;connectable=0;fillColor=none;top=0;left=0;bottom=0;right=0;align=left;spacingLeft=6;overflow=hidden;whiteSpace=wrap;html=1;" parent="-ezi1YoIWXzpiLEhyv2d-17" vertex="1">
                    <mxGeometry x="50" width="130" height="30" as="geometry">
                        <mxRectangle width="130" height="30" as="alternateBounds"/>
                    </mxGeometry>
                </mxCell>
                <mxCell id="-ezi1YoIWXzpiLEhyv2d-20" value="" style="shape=tableRow;horizontal=0;startSize=0;swimlaneHead=0;swimlaneBody=0;fillColor=none;collapsible=0;dropTarget=0;points=[[0,0.5],[1,0.5]];portConstraint=eastwest;top=0;left=0;right=0;bottom=0;" parent="-ezi1YoIWXzpiLEhyv2d-1" vertex="1">
                    <mxGeometry y="180" width="180" height="30" as="geometry"/>
                </mxCell>
                <mxCell id="-ezi1YoIWXzpiLEhyv2d-21" value="boolean" style="shape=partialRectangle;connectable=0;fillColor=none;top=0;left=0;bottom=0;right=0;editable=1;overflow=hidden;whiteSpace=wrap;html=1;" parent="-ezi1YoIWXzpiLEhyv2d-20" vertex="1">
                    <mxGeometry width="50" height="30" as="geometry">
                        <mxRectangle width="50" height="30" as="alternateBounds"/>
                    </mxGeometry>
                </mxCell>
                <mxCell id="-ezi1YoIWXzpiLEhyv2d-22" value="is_credit" style="shape=partialRectangle;connectable=0;fillColor=none;top=0;left=0;bottom=0;right=0;align=left;spacingLeft=6;overflow=hidden;whiteSpace=wrap;html=1;" parent="-ezi1YoIWXzpiLEhyv2d-20" vertex="1">
                    <mxGeometry x="50" width="130" height="30" as="geometry">
                        <mxRectangle width="130" height="30" as="alternateBounds"/>
                    </mxGeometry>
                </mxCell>
                <mxCell id="-ezi1YoIWXzpiLEhyv2d-23" value="" style="shape=tableRow;horizontal=0;startSize=0;swimlaneHead=0;swimlaneBody=0;fillColor=none;collapsible=0;dropTarget=0;points=[[0,0.5],[1,0.5]];portConstraint=eastwest;top=0;left=0;right=0;bottom=0;" parent="-ezi1YoIWXzpiLEhyv2d-1" vertex="1">
                    <mxGeometry y="210" width="180" height="30" as="geometry"/>
                </mxCell>
                <mxCell id="-ezi1YoIWXzpiLEhyv2d-24" value="boolean" style="shape=partialRectangle;connectable=0;fillColor=none;top=0;left=0;bottom=0;right=0;editable=1;overflow=hidden;whiteSpace=wrap;html=1;" parent="-ezi1YoIWXzpiLEhyv2d-23" vertex="1">
                    <mxGeometry width="50" height="30" as="geometry">
                        <mxRectangle width="50" height="30" as="alternateBounds"/>
                    </mxGeometry>
                </mxCell>
                <mxCell id="-ezi1YoIWXzpiLEhyv2d-25" value="is_fixed_expense" style="shape=partialRectangle;connectable=0;fillColor=none;top=0;left=0;bottom=0;right=0;align=left;spacingLeft=6;overflow=hidden;whiteSpace=wrap;html=1;" parent="-ezi1YoIWXzpiLEhyv2d-23" vertex="1">
                    <mxGeometry x="50" width="130" height="30" as="geometry">
                        <mxRectangle width="130" height="30" as="alternateBounds"/>
                    </mxGeometry>
                </mxCell>
                <mxCell id="-ezi1YoIWXzpiLEhyv2d-26" value="" style="shape=tableRow;horizontal=0;startSize=0;swimlaneHead=0;swimlaneBody=0;fillColor=none;collapsible=0;dropTarget=0;points=[[0,0.5],[1,0.5]];portConstraint=eastwest;top=0;left=0;right=0;bottom=0;" parent="-ezi1YoIWXzpiLEhyv2d-1" vertex="1">
                    <mxGeometry y="240" width="180" height="30" as="geometry"/>
                </mxCell>
                <mxCell id="-ezi1YoIWXzpiLEhyv2d-27" value="chart" style="shape=partialRectangle;connectable=0;fillColor=none;top=0;left=0;bottom=0;right=0;editable=1;overflow=hidden;whiteSpace=wrap;html=1;" parent="-ezi1YoIWXzpiLEhyv2d-26" vertex="1">
                    <mxGeometry width="50" height="30" as="geometry">
                        <mxRectangle width="50" height="30" as="alternateBounds"/>
                    </mxGeometry>
                </mxCell>
                <mxCell id="-ezi1YoIWXzpiLEhyv2d-28" value="transaction_type" style="shape=partialRectangle;connectable=0;fillColor=none;top=0;left=0;bottom=0;right=0;align=left;spacingLeft=6;overflow=hidden;whiteSpace=wrap;html=1;" parent="-ezi1YoIWXzpiLEhyv2d-26" vertex="1">
                    <mxGeometry x="50" width="130" height="30" as="geometry">
                        <mxRectangle width="130" height="30" as="alternateBounds"/>
                    </mxGeometry>
                </mxCell>
                <mxCell id="J4-QkaOF-FGT7BGXArba-16" value="" style="shape=tableRow;horizontal=0;startSize=0;swimlaneHead=0;swimlaneBody=0;fillColor=none;collapsible=0;dropTarget=0;points=[[0,0.5],[1,0.5]];portConstraint=eastwest;top=0;left=0;right=0;bottom=0;" parent="-ezi1YoIWXzpiLEhyv2d-1" vertex="1">
                    <mxGeometry y="270" width="180" height="30" as="geometry"/>
                </mxCell>
                <mxCell id="J4-QkaOF-FGT7BGXArba-17" value="datetime" style="shape=partialRectangle;connectable=0;fillColor=none;top=0;left=0;bottom=0;right=0;editable=1;overflow=hidden;" parent="J4-QkaOF-FGT7BGXArba-16" vertex="1">
                    <mxGeometry width="50" height="30" as="geometry">
                        <mxRectangle width="50" height="30" as="alternateBounds"/>
                    </mxGeometry>
                </mxCell>
                <mxCell id="J4-QkaOF-FGT7BGXArba-18" value="created_at" style="shape=partialRectangle;connectable=0;fillColor=none;top=0;left=0;bottom=0;right=0;align=left;spacingLeft=6;overflow=hidden;" parent="J4-QkaOF-FGT7BGXArba-16" vertex="1">
                    <mxGeometry x="50" width="130" height="30" as="geometry">
                        <mxRectangle width="130" height="30" as="alternateBounds"/>
                    </mxGeometry>
                </mxCell>
                <mxCell id="J4-QkaOF-FGT7BGXArba-20" value="" style="shape=tableRow;horizontal=0;startSize=0;swimlaneHead=0;swimlaneBody=0;fillColor=none;collapsible=0;dropTarget=0;points=[[0,0.5],[1,0.5]];portConstraint=eastwest;top=0;left=0;right=0;bottom=0;" parent="-ezi1YoIWXzpiLEhyv2d-1" vertex="1">
                    <mxGeometry y="300" width="180" height="30" as="geometry"/>
                </mxCell>
                <mxCell id="J4-QkaOF-FGT7BGXArba-21" value="datetime" style="shape=partialRectangle;connectable=0;fillColor=none;top=0;left=0;bottom=0;right=0;editable=1;overflow=hidden;" parent="J4-QkaOF-FGT7BGXArba-20" vertex="1">
                    <mxGeometry width="50" height="30" as="geometry">
                        <mxRectangle width="50" height="30" as="alternateBounds"/>
                    </mxGeometry>
                </mxCell>
                <mxCell id="J4-QkaOF-FGT7BGXArba-22" value="updated_at" style="shape=partialRectangle;connectable=0;fillColor=none;top=0;left=0;bottom=0;right=0;align=left;spacingLeft=6;overflow=hidden;" parent="J4-QkaOF-FGT7BGXArba-20" vertex="1">
                    <mxGeometry x="50" width="130" height="30" as="geometry">
                        <mxRectangle width="130" height="30" as="alternateBounds"/>
                    </mxGeometry>
                </mxCell>
            </root>
        </mxGraphModel>
    </diagram>
</mxfile>